<?xml version="1.0" encoding="UTF-8"?>
<!DOCTYPE svg PUBLIC "-//W3C//DTD SVG 1.1//EN" "http://www.w3.org/Graphics/SVG/1.1/DTD/svg11.dtd">
<!-- Creator: CorelDRAW X7 -->
<svg xmlns="http://www.w3.org/2000/svg" xml:space="preserve" width="1000mm" height="500mm" version="1.1" style="shape-rendering:geometricPrecision; text-rendering:geometricPrecision; image-rendering:optimizeQuality; fill-rule:evenodd; clip-rule:evenodd"
viewBox="0 0 1000000 500000"
 xmlns:xlink="http://www.w3.org/1999/xlink">
 <defs>
  <style type="text/css">
   <![CDATA[
    .fil5 {fill:#007E9A}
    .fil4 {fill:#00B2D8}
    .fil3 {fill:#682C84}
    .fil8 {fill:#84C341}
    .fil7 {fill:#ED3087}
    .fil2 {fill:#EE529C}
    .fil6 {fill:#F28C30}
    .fil1 {fill:#FFCF49}
    .fil0 {fill:white}
   ]]>
  </style>
 </defs>
 <g id="Capa_x0020_1">
  <metadata id="CorelCorpID_0Corel-Layer"/>
  <path class="fil0" d="M347474 221574c59,9 257,-27 213,56 -14,27 -38,22 -76,22 -31,-1 -170,3 -189,-3 -43,-13 -24,-129 -24,-171 0,-34 -6,-254 5,-277 12,-24 48,-26 63,-3 20,29 4,312 8,376zm-1124 2c34,0 163,-4 186,2 24,7 40,32 24,57 -15,23 -46,17 -81,17 -248,-1 -206,77 -206,-366 0,-28 -5,-69 7,-88 16,-24 46,-17 61,4 22,31 -1,306 9,374zm2851 56c-80,75 -75,-81 -108,-91l-158 0c-11,39 -31,119 -73,110 -20,-5 -35,-31 -27,-57 8,-23 19,-47 28,-72 35,-97 70,-182 103,-275 9,-23 15,-52 34,-61 56,-27 79,84 108,166 21,56 97,230 93,280zm-1437 -148l-1 -233c0,-33 -1,-48 20,-62 19,-14 38,-5 48,11 32,46 -32,282 49,347 78,62 170,19 193,-61 8,-28 4,-182 3,-229 0,-32 -3,-52 17,-67 19,-15 37,-7 49,8 16,19 10,40 10,70 -1,99 14,218 -28,286 -96,159 -323,112 -360,-70zm-3770 0l-1 -233c-1,-91 54,-72 68,-52 12,18 8,48 8,75 -1,97 -17,227 41,273 78,62 170,20 193,-61 8,-28 4,-182 3,-229 0,-32 -3,-52 17,-67 18,-15 36,-7 49,8 16,18 10,40 10,70 -1,99 14,218 -28,287 -96,158 -323,111 -360,-71zm-2367 123l0 -379c0,-60 39,-46 136,-46 74,0 160,62 193,128 78,159 -33,341 -216,342 -55,0 -113,14 -113,-45zm4977 -169c-21,-100 60,-246 203,-266 69,-10 141,25 174,55 91,81 110,233 26,336 -138,168 -364,72 -397,-98l-6 -27zm-923 0c-20,-99 61,-246 204,-266 194,-28 338,222 200,391 -41,49 -76,74 -152,86 -104,18 -223,-68 -245,-184l-7 -27zm-3596 0c-20,-101 61,-247 205,-267 67,-9 139,25 173,57 19,17 38,43 50,66 118,215 -134,474 -347,300 -52,-43 -70,-103 -81,-156zm-1026 0c-14,-67 27,-148 52,-180 33,-43 85,-77 152,-87 68,-9 139,25 173,56 19,17 38,44 50,67 15,27 25,59 29,93 24,173 -187,362 -375,207 -14,-12 -44,-48 -52,-64 -20,-37 -18,-48 -26,-79 -4,-22 -1,-3 -3,-13zm4013 11l0 -52c26,38 9,39 0,52zm4461 -16c34,33 42,47 46,110 3,51 16,17 25,55 14,54 -90,83 -100,-38 -3,-32 2,-48 -15,-68 -28,-34 -90,-28 -131,-24 0,50 16,153 -17,177 -21,14 -48,1 -55,-19 -7,-17 -3,-333 -3,-387 0,-74 20,-57 172,-57 21,0 61,20 74,30 67,48 77,158 4,221zm-4988 -242c62,-16 79,42 149,135 21,29 40,56 61,85l59 83c23,-115 -38,-343 54,-302 7,3 21,1 24,41l0 199c0,55 24,234 -45,219 -26,-6 -96,-119 -119,-149 -10,-14 -20,-29 -27,-38 -24,-32 -73,-104 -93,-117 0,71 0,142 0,213 0,32 4,68 -18,85 -86,65 -57,-218 -57,-248 0,-54 -9,-166 12,-206zm-1271 410l0 -368c0,-54 48,-62 78,-19 11,18 16,25 29,41 31,42 159,228 177,238 4,-79 -2,-173 0,-254 1,-73 59,-61 72,-24 8,25 3,299 4,345 0,34 5,99 -43,91 -30,-5 -209,-272 -241,-312 -3,72 -1,149 -1,221 1,142 -75,91 -75,41zm5354 -58l0 -89c-36,0 -138,14 -134,-40 4,-50 108,-35 173,-35 53,0 36,104 36,181 0,44 -63,71 -100,80 -168,43 -312,-79 -312,-220 0,-52 2,-71 27,-121 62,-120 216,-168 347,-92 15,8 31,17 36,35 6,21 -4,44 -34,44 -50,0 -34,-41 -146,-41 -51,0 -100,41 -121,70 -65,88 -31,208 77,248 42,16 129,20 151,-20zm-3312 -240c0,58 142,65 200,93 29,13 59,41 72,69 56,121 -133,261 -319,138 -66,-44 -34,-79 -10,-79 50,0 108,94 220,45 55,-24 101,-92 -62,-133 -77,-19 -163,-38 -171,-121 -10,-108 86,-151 176,-151 53,0 216,64 129,116 -37,10 -115,-87 -208,-27 -20,13 -27,21 -27,50zm-2367 -44l0 118c33,4 236,-24 186,61 -10,16 -28,17 -53,17 -41,0 -94,-4 -133,1l0 119c94,8 220,-22 221,38 0,54 -102,39 -135,39 -43,0 -136,13 -155,-18 -15,-25 -6,-289 -6,-342 0,-128 -28,-110 237,-111 31,0 50,5 56,32 17,71 -136,37 -218,46zm-2278 -77l291 0c38,0 49,51 19,69 -23,14 -93,6 -125,6 -2,71 -1,145 -1,216 0,48 21,171 -33,178 -61,8 -42,-121 -42,-173 0,-72 1,-146 0,-219 -38,-6 -93,7 -122,-7 -34,-16 -20,-70 13,-70zm1810 -165l326 0c-7,7 1,1 -10,8 -35,24 -46,29 -72,67 -21,30 -39,76 -40,124 -21,-24 -21,-34 -40,-59 -23,-32 -67,-79 -99,-100l-65 -40zm1990 -5l0 11c-16,-1 -16,-3 -29,-6 6,-4 0,-3 12,-5 5,-1 11,0 17,0zm-2959 40l-70 -40c28,0 58,2 86,-2 20,-3 52,-10 77,-10l-93 52zm3274 -367c14,10 32,38 45,54 17,18 35,34 53,52 68,68 154,126 246,163 32,13 116,45 158,46 -30,21 -178,66 -210,204 -4,-7 -1,1 -6,-12 -12,-37 -6,-48 -38,-95 -60,-89 -185,-116 -269,-78 -20,9 -38,23 -55,28 -32,-22 -77,-46 -128,-47l19 -10c11,-5 14,-7 23,-12 44,-27 70,-50 102,-91 37,-47 60,-119 60,-202zm-414 309l1 2c0,0 -2,-1 -1,-2zm-1168 12c42,-4 117,-46 135,-70 25,16 43,33 73,49 25,12 68,27 102,27 -16,13 -23,10 -59,40 -26,-17 -22,-20 -62,-37 -109,-46 -146,20 -189,-9zm-1593 -12l23 0c-11,7 13,7 -11,5 -13,-1 -6,-1 -12,-5zm7220 99l-79 -55c-21,-13 -74,-37 -102,-38l23 -12c105,-50 135,-107 177,-214l39 -107 251 0c24,44 53,154 78,196 28,46 57,76 101,104l43 27c-46,0 -76,2 -111,12 -18,5 -28,10 -45,19 -17,9 -24,16 -37,27 -29,-20 -36,-31 -77,-44 -35,-12 -71,-14 -105,-9 -73,10 -124,45 -156,94zm-555 -233c21,14 71,109 152,128 -15,21 -52,14 -112,51l-34 25c-79,-53 -44,-45 -152,-70l85 -56c28,-21 45,-48 61,-78zm-1068 362c-42,-49 -48,-126 -214,-206l-19 -10c48,-12 89,-17 136,-33 261,-87 507,-289 585,-559l14 -33c0,228 -57,537 200,618 36,11 68,10 104,18l-59 41c-155,-134 -319,-19 -332,29 -33,-22 -75,-93 -187,-93 -129,0 -228,97 -228,228zm-3391 -59c-15,-11 -20,-36 -29,-52 -11,-19 -23,-33 -39,-49 -28,-26 -71,-52 -119,-56 7,-5 1,-1 12,-7 4,-2 8,-3 12,-5 108,-45 153,-109 192,-217l41 -110 257 0c7,32 23,70 35,99 55,139 57,148 171,221 10,6 4,2 10,7 -96,0 -122,33 -169,64 -91,-61 -188,-104 -300,-13 -31,25 -70,69 -74,118zm-1483 -1704c0,-86 157,-167 221,-34 18,36 11,103 11,157 0,139 -5,948 2,1014l589 1c108,17 133,170 23,220 -5,2 -35,11 -41,11l-693 0c-51,0 -112,-55 -112,-114l0 -1255zm5557 6c0,-54 52,-110 105,-110 75,0 127,57 127,110l0 1255c0,138 -232,146 -232,-6l0 -1249zm-3105 1220l-7 -12 7 12zm3881 45c-63,179 -279,87 -225,-67l139 -369c57,-157 123,-325 187,-501l141 -372c31,-61 163,-135 232,47 23,59 42,114 65,175l390 1048 0 35c0,97 -162,153 -217,35l-53 -139c-9,-25 -18,-49 -28,-73 -9,-24 -16,-47 -26,-67l-512 -2 -93 250zm-5130 98c-76,0 -124,-84 -103,-158l445 -1185c21,-53 40,-130 137,-130 100,0 121,121 150,193 124,317 255,678 372,993 34,91 87,182 23,251 -49,53 -150,65 -201,-67l-93 -245c-75,-2 -465,-4 -512,2 -13,29 -26,68 -38,101 -52,136 -64,245 -180,245zm1291 -1363c0,-88 124,-157 200,-73 17,19 30,42 32,73 13,158 -15,729 11,842 52,226 317,371 556,238 92,-51 161,-148 180,-252 20,-110 -3,-787 10,-843 31,-144 230,-112 230,15l0 794c0,25 -17,106 -24,127 -40,122 -75,183 -168,276 -53,53 -113,84 -181,117 -31,15 -73,27 -110,34 -357,73 -677,-171 -727,-494 -1,-9 -9,-58 -9,-60l0 -794zm1648 0c0,-69 64,-110 119,-110 157,0 278,-13 430,25 42,11 91,28 128,47 88,44 142,84 204,146 61,62 99,115 145,205 68,136 87,318 54,465 -7,33 -15,62 -26,91 -13,33 -20,57 -35,88 -119,237 -372,408 -660,406 -141,-1 -359,39 -359,-114l0 -1249zm-5824 572c0,-126 66,-296 144,-401l83 -97c121,-117 294,-206 464,-219l116 -6c133,0 493,110 493,244 0,116 -100,181 -217,92 -111,-85 -225,-98 -357,-98 -98,0 -262,81 -334,151 -39,38 -72,86 -101,144 -49,98 -53,158 -53,260 0,83 56,208 102,269 12,16 17,19 29,35 11,14 15,20 27,31 73,63 143,104 238,129 123,34 258,22 370,-34 32,-16 54,-27 81,-47 133,-97 215,12 215,60 0,102 -46,122 -137,175 -211,123 -474,126 -686,44 -57,-22 -120,-61 -181,-104 -138,-100 -238,-265 -276,-431 -22,-93 -20,-111 -20,-197zm545 951l-26 10c-143,46 -45,31 -142,6 -85,-21 -243,-10 -334,-10 -72,0 -128,20 -165,57 -142,136 -60,346 65,375 0,158 -29,289 98,375 126,85 291,15 311,-60 24,6 34,19 55,33 97,65 238,85 351,47 44,-15 62,-27 96,-45 23,16 31,28 62,43 84,41 266,25 341,-14 29,-14 62,-30 88,-51 12,-10 15,-16 28,-25 39,26 73,57 117,76 136,61 284,41 404,-39 30,-20 52,-44 76,-70l63 -89c0,72 23,125 60,162 35,36 82,71 150,71 70,0 220,9 282,-4 15,-3 32,-9 41,-10 50,-5 101,55 231,-32 65,17 51,46 158,46 70,0 133,-41 163,-82 49,-67 47,-92 47,-204 1,2 2,2 2,4 0,3 3,7 4,9 0,0 4,12 4,13 22,66 62,126 114,171 135,114 327,116 472,19 28,43 100,70 163,70 64,0 96,-21 134,-46 50,26 83,46 152,46 90,0 202,-80 204,-175 39,29 33,60 138,119 99,55 246,74 357,31l88 -46c6,-5 8,-6 13,-10 147,98 326,113 478,11 48,33 91,70 158,70 76,0 245,13 311,-15 24,-11 37,-26 57,-20 82,27 72,35 180,35 170,0 276,-98 353,-225 7,-12 2,-5 9,-14 0,104 44,167 120,213 26,15 52,26 90,26 88,0 239,13 318,-15 21,-7 37,-27 58,-22 56,15 48,37 173,37 61,0 114,-15 156,-37 64,-32 68,-50 112,-79 19,12 33,29 56,44 108,72 266,95 393,48 11,-4 32,-16 42,-16 42,0 95,73 228,24 26,-10 40,-24 64,-36 65,35 82,52 163,52 29,0 42,-9 59,-9 45,-2 66,23 148,0 20,-6 40,-21 52,-23 38,-7 132,83 276,-28 75,-59 93,-190 51,-274 -1,-1 -2,-3 -2,-4 -48,-106 75,-172 -60,-373 -25,-37 -103,-107 -156,-112l0 -11c64,-2 119,-51 159,-92 78,-81 95,-237 47,-342 -15,-33 -27,-66 -39,-101 -52,-146 -113,-289 -160,-436l-144 -381c-34,-97 -106,-324 -171,-389 -83,-82 -143,-92 -258,-92 -97,0 -179,68 -225,138 -37,57 -378,988 -430,1122 -2,5 -2,7 -5,13 -5,11 -1,5 -6,11 0,-265 0,-529 0,-794 0,-147 14,-257 -45,-351 -130,-205 -439,-185 -539,36 -41,92 -23,311 -23,444l-8 -16c-23,-55 -9,-36 -48,-115 -22,-44 -44,-78 -71,-115 -166,-226 -427,-379 -748,-379 -199,0 -416,-37 -518,165 -17,34 -31,73 -31,121l0 1278c0,40 21,100 37,126 75,123 173,160 337,160 -1,1 -3,1 -4,3l-14 9c-85,47 -80,67 -128,99 -59,-111 -171,-165 -296,-114 -34,14 -42,28 -66,44 -79,-41 -136,-76 -251,-76 -101,0 -179,42 -239,82 -22,-19 -52,-32 -78,-45l-28 -13 144 -37c171,-59 304,-175 403,-322 26,-38 43,-73 62,-118 35,-81 63,-187 63,-300l0 -770c0,-311 -428,-399 -570,-132 -56,103 -37,278 -37,400 0,144 0,288 0,432 0,90 1,124 -40,177 -76,95 -213,96 -291,3 -43,-51 -43,-86 -43,-174 0,-144 0,-288 0,-432 0,-139 14,-303 -33,-399 -93,-190 -379,-228 -509,-55 -68,92 -65,133 -65,285 0,234 0,467 0,700 -1,-1 -2,-4 -2,-3l-14 -33c-5,-15 -8,-24 -14,-39l-172 -458c-8,-21 -8,-15 -16,-36 -40,-104 -110,-337 -169,-409 -89,-110 -239,-145 -371,-89 -84,36 -137,112 -169,199l-133 357c-23,59 -45,116 -66,174 -22,60 -45,116 -67,178 -23,66 -112,320 -132,358 -51,-14 -81,-53 -151,-53l-409 0 0 -939c0,-169 -135,-304 -304,-304 -171,0 -303,137 -303,310l0 1231c0,67 21,127 48,168 46,70 90,79 110,106 -90,0 -233,46 -281,117 -154,-103 -171,-105 -385,-105l8 -4c30,-11 -22,7 9,-3l55 -14c132,-39 344,-148 394,-272 36,-92 39,-216 -16,-302 -72,-112 -249,-170 -382,-113 -65,28 -104,71 -171,97 -75,29 -182,24 -253,-8 -59,-26 -111,-56 -144,-112 -36,-62 -66,-116 -66,-197 0,-173 154,-327 327,-327 90,0 168,18 231,67 59,45 105,73 189,73 68,0 117,-16 169,-47 42,-24 89,-67 109,-113 43,-97 43,-184 5,-280 -14,-34 -28,-60 -54,-87 -43,-45 -106,-82 -163,-111 -265,-134 -568,-157 -846,-37 -87,37 -170,83 -240,146 -13,11 -19,15 -32,26 -38,33 -74,75 -106,115 -66,84 -121,185 -154,290 -95,295 -38,622 149,858l21 32c38,51 91,100 142,138 91,67 262,170 376,179z"/>
  <path class="fil0" d="M346969 217836l-6 -5 6 5zm-6 -5l0 0zm-17 -12l0 0zm0 0l-6 -6 6 6zm-6 -6l-6 -6 6 6zm-6 -6l-6 -6 6 6zm36 -442c33,0 66,-8 98,-12 40,-6 72,-3 87,-24 24,-34 48,-114 77,-147 20,16 58,119 77,145 17,25 153,38 186,38 -7,32 -92,88 -116,117 -19,25 -8,55 1,99 6,32 10,60 17,97 -39,-4 -139,-77 -167,-78 -17,-1 -131,74 -162,78 1,-25 11,-71 15,-94 5,-33 14,-58 13,-91 -31,-21 -43,-33 -69,-59 -12,-12 -20,-20 -32,-32 -15,-15 -23,-17 -25,-37zm-2552 -813l0 0zm1314 -11l0 0zm-1924 -33c29,-3 57,-8 82,-11 70,-10 57,-1 71,-23 22,-32 37,-85 63,-119l84 135c29,8 109,11 128,21 -21,41 -78,69 -96,96 -17,24 14,118 15,155 -32,-8 -113,-63 -133,-63 -22,0 -97,58 -133,61 0,-44 23,-103 23,-150 -24,-16 -97,-78 -104,-102zm2256 -19c6,-21 54,-117 66,-133 25,33 41,90 63,120 13,19 0,11 31,16l118 16c-5,19 -86,95 -104,107 8,43 24,102 23,145 -37,-3 -103,-61 -132,-60 -33,1 -99,59 -134,62 6,-34 23,-101 23,-134 0,-34 -77,-77 -104,-121 53,-2 97,-17 150,-18zm-928 -603l109 224c113,215 265,445 387,613l220 281c12,14 24,28 36,46l438 472 352 314c139,113 311,263 458,365l398 267c32,21 189,111 200,127 1,214 -145,353 -350,379 -144,19 -294,-72 -358,-185 -14,-24 -47,-104 -50,-126 0,-2 -1,-3 -1,-4 -7,12 -14,49 -20,68 -26,73 -59,104 -109,154 -47,47 -156,100 -257,96 -164,-5 -308,-112 -356,-260l-18 -63c-9,81 -65,175 -128,226 -67,55 -162,103 -255,97 -146,-9 -260,-73 -332,-198 -35,-62 -31,-108 -44,-129 1,29 -29,107 -45,133 -50,83 -103,131 -190,165 -102,41 -191,35 -291,-1 -38,-14 -78,-45 -108,-67 -56,-44 -125,-175 -122,-230 -9,13 -13,76 -47,133 -21,36 -49,72 -78,98 -50,44 -111,73 -180,88 -135,28 -231,-14 -330,-91 -27,-22 -59,-62 -79,-96 -18,-32 -41,-90 -46,-128l-3 8c0,1 -1,3 -1,4l-6 24c-9,37 -19,59 -36,92 -59,112 -192,195 -333,196 -115,1 -196,-48 -255,-100 -112,-99 -101,-170 -125,-219l-11 36c-3,15 -5,22 -11,36 -173,404 -740,273 -738,-136 13,-19 79,-51 104,-66 133,-80 229,-149 353,-230l243 -172c115,-86 216,-179 323,-261l266 -230c15,-14 26,-26 41,-41 28,-28 56,-50 84,-79l246 -251 231 -270c27,-31 48,-59 73,-90 135,-165 297,-401 408,-585 33,-56 210,-373 227,-434 -22,-20 -33,-40 -5,-68 42,-40 70,12 50,-268 -34,9 -65,45 -102,44 8,-17 8,-44 12,-67 5,-26 14,-43 -1,-61 -18,-21 -73,-59 -74,-84 28,-1 111,-7 125,-26l45 -89c5,-9 6,-9 8,-11l56 114c46,0 75,9 122,12 -2,31 -59,56 -77,81 -20,28 8,96 9,132 -24,-4 -78,-33 -98,-45l0 237c78,52 76,49 46,99zm-718 666c0,-87 -8,-165 -105,-210 -72,-34 -90,2 -113,-44 -20,-40 -33,-66 -67,-91 -92,-69 -224,-30 -271,51 -16,29 -19,53 -38,62 -19,9 -53,-1 -110,30 -59,31 -114,122 -83,219 34,105 92,65 78,149 -20,124 56,225 166,226 154,1 100,-67 181,-24 21,11 34,18 59,23l-323 355c-20,20 -35,35 -55,55 -11,12 -18,20 -30,29 -49,39 -72,71 -113,109 -66,61 -375,332 -401,340 -17,25 -208,164 -235,185 -42,31 -81,57 -122,88l-314 211c-23,16 -38,27 -64,42l-132 77c-47,31 -74,66 -86,130 -20,97 30,247 82,330 154,248 478,339 731,209 73,-38 85,-59 128,-88 47,32 58,61 161,102 177,71 363,57 521,-44 30,-19 50,-39 77,-58 14,10 21,19 35,30 200,153 495,156 685,2l39 -32c223,195 532,197 758,0 47,32 60,63 160,103 182,73 360,53 523,-44 38,-23 56,-45 76,-59 64,43 69,61 162,101 56,25 139,45 217,46 85,0 157,-20 219,-45 88,-35 107,-66 161,-102 58,39 37,40 126,84 263,132 569,45 728,-198 52,-78 104,-235 90,-328 -18,-123 -104,-146 -211,-209l-190 -125c-22,-14 -42,-27 -64,-42l-365 -265c-22,-17 -39,-28 -60,-45 -15,-12 -51,-38 -60,-51 50,12 92,59 206,-3 103,-57 61,5 190,28 78,14 150,-25 183,-76 48,-72 37,-133 16,-223 189,-126 126,-347 -37,-377l-66 -9c-50,-13 -34,-63 -88,-123 -72,-81 -234,-101 -313,58 -16,32 -19,51 -39,60 -1,1 -3,0 -4,2 0,1 -3,1 -4,1 -7,2 -7,2 -14,3 -13,3 -20,3 -31,5 -166,21 -213,163 -167,262 26,52 47,63 88,105 34,34 -13,60 -1,158 4,39 25,66 40,94 -17,-4 -36,-25 -60,-44 -13,-11 -17,-13 -29,-24 -13,-12 -19,-14 -32,-26 -19,-18 -36,-33 -56,-50l-394 -370c-28,-35 -141,-140 -186,-194 -12,-14 -13,-18 -26,-32l-104 -118c19,-9 34,-10 54,-22 75,-46 29,24 180,23 88,-1 155,-70 169,-146 15,-84 -22,-99 3,-131 29,-34 52,-39 69,-89 40,-115 -20,-216 -121,-245 -88,-26 -54,16 -97,-61 -31,-53 -76,-94 -140,-99 -102,-8 -162,32 -201,115 -37,79 -104,-8 -195,120 -24,34 -30,75 -30,133 -30,-22 -221,-337 -242,-372 -28,-48 -154,-264 -156,-305 -2,-51 3,-57 -16,-100 -8,-18 -8,-11 -12,-29 50,-34 78,-113 58,-198 136,-92 83,-339 -111,-339 -19,-80 -122,-152 -231,-120 -47,14 -83,44 -105,82 -20,35 -7,34 -51,43 -71,13 -124,56 -145,128 -37,127 59,187 64,207 7,30 -32,98 48,185 1,1 2,2 3,3 1,1 2,2 3,3 6,6 5,3 11,12 -5,6 -10,11 -15,20 -4,8 -7,21 -10,30 -7,24 -10,38 -10,67 1,68 -53,137 -95,214 -77,139 -148,256 -236,388l-66 92z"/>
  <path class="fil1" d="M342421 218595l755 0c0,25 5,33 5,64 24,49 13,120 125,219 59,52 140,101 255,100 141,-1 274,-84 333,-196 17,-33 27,-55 36,-92l6 -24c0,-1 1,-3 1,-4l3 -8 -6 -58 767 -1 -1 55c-3,55 66,186 122,230 30,22 70,53 108,67 100,36 189,42 291,1 87,-34 140,-82 190,-165 16,-26 46,-104 45,-133l-1 -55 766 0 -6 59 18 63c48,148 192,255 356,260 101,4 210,-49 257,-96 50,-50 83,-81 109,-154 6,-19 13,-56 20,-68l0 -64 759 0c-11,-16 -168,-106 -200,-127l-398 -267c-147,-102 -319,-252 -458,-365l-352 -314 -438 -472c-12,-18 -24,-32 -36,-46l-220 -281c-122,-168 -274,-398 -387,-613l-109 -224 -23 0c1,38 54,174 69,217 26,69 53,139 78,208 25,67 57,139 86,200l90 191c191,383 413,711 672,1038l196 230c11,15 20,23 34,36l137 149c39,44 76,71 108,102 25,24 45,46 70,71l304 261c-191,1 -381,0 -572,0 -47,0 -100,2 -146,0 -31,-1 -30,-6 -46,-23l-96 -114c-23,-27 -41,-49 -62,-79 -163,-239 -290,-466 -401,-736 -77,-186 -134,-324 -199,-520 -12,-37 -23,-69 -35,-105l-100 -327c-29,-100 -192,-724 -193,-799l-23 0c12,111 26,238 34,352 9,119 25,237 35,350 37,434 141,1262 226,1694l51 234c6,23 17,48 19,73l-742 -2c2,-24 13,-51 19,-76 69,-270 178,-967 201,-1235 10,-113 30,-232 40,-345 11,-117 24,-231 37,-348l68 -697 -23 0c-1,29 -40,198 -50,237 -19,78 -35,156 -55,231l-90 336c-66,231 -161,526 -250,749 -28,70 -56,135 -82,198 -15,36 -29,66 -44,102l-44 96c-29,57 -62,126 -97,189 -76,139 -139,236 -217,349 -39,57 -83,107 -128,157 -14,16 -20,26 -35,42 -19,19 -16,17 -52,17l-706 0 382 -334c95,-84 218,-231 310,-327 154,-161 397,-503 520,-688 38,-56 74,-116 110,-177 74,-122 140,-244 201,-365 109,-219 162,-365 254,-598 14,-38 66,-184 67,-214l-23 0c-17,61 -194,378 -227,434 -111,184 -273,420 -408,585 -25,31 -46,59 -73,90l-231 270 -246 251c-28,29 -56,51 -84,79 -15,15 -26,27 -41,41l-266 230c-107,82 -208,175 -323,261l-243 172c-124,81 -220,150 -353,230 -25,15 -91,47 -104,66z"/>
  <path class="fil2" d="M345084 215886l-12 0 -68 697c-13,117 -26,231 -37,348 -10,113 -30,232 -40,345 -23,268 -132,965 -201,1235 -6,25 -17,52 -19,76l742 2c-2,-25 -13,-50 -19,-73l-51 -234c-85,-432 -189,-1260 -226,-1694 -10,-113 -26,-231 -35,-350 -8,-114 -22,-241 -34,-352z"/>
  <path class="fil3" d="M346708 219588c319,-36 574,123 627,432 27,155 -42,338 -153,435 -43,38 -47,48 -111,81 -34,17 -55,27 -95,39 -86,26 -180,24 -268,20l0 -1007zm-232 -123l0 1249c0,153 218,113 359,114 288,2 541,-169 660,-406 15,-31 22,-55 35,-88 11,-29 19,-58 26,-91 33,-147 14,-329 -54,-465 -46,-90 -84,-143 -145,-205 -62,-62 -116,-102 -204,-146 -37,-19 -86,-36 -128,-47 -152,-38 -273,-25 -430,-25 -55,0 -119,41 -119,110z"/>
  <path class="fil2" d="M345113 215886l-6 0c1,75 164,699 193,799l100 327c12,36 23,68 35,105 65,196 122,334 199,520 111,270 238,497 401,736 21,30 39,52 62,79l96 114c16,17 15,22 46,23 46,2 99,0 146,0 191,0 381,1 572,0l-304 -261c-25,-25 -45,-47 -70,-71 -32,-31 -69,-58 -108,-102l-137 -149c-14,-13 -23,-21 -34,-36l-196 -230c-259,-327 -481,-655 -672,-1038l-90 -191c-29,-61 -61,-133 -86,-200 -25,-69 -52,-139 -78,-208 -15,-43 -68,-179 -69,-217z"/>
  <path class="fil2" d="M345049 215886l-6 0c-1,30 -53,176 -67,214 -92,233 -145,379 -254,598 -61,121 -127,243 -201,365 -36,61 -72,121 -110,177 -123,185 -366,527 -520,688 -92,96 -215,243 -310,327l-382 334 706 0c36,0 33,2 52,-17 15,-16 21,-26 35,-42 45,-50 89,-100 128,-157 78,-113 141,-210 217,-349 35,-63 68,-132 97,-189l44 -96c15,-36 29,-66 44,-102 26,-63 54,-128 82,-198 89,-223 184,-518 250,-749l90 -336c20,-75 36,-153 55,-231 10,-39 49,-208 50,-237z"/>
  <path class="fil3" d="M344828 219465l0 794c0,2 8,51 9,60 50,323 370,567 727,494 37,-7 79,-19 110,-34 68,-33 128,-64 181,-117 93,-93 128,-154 168,-276 7,-21 24,-102 24,-127l0 -794c0,-127 -199,-159 -230,-15 -13,56 10,733 -10,843 -19,104 -88,201 -180,252 -239,133 -504,-12 -556,-238 -26,-113 2,-684 -11,-842 -2,-31 -15,-54 -32,-73 -76,-84 -200,-15 -200,73z"/>
  <path class="fil3" d="M344012 219802l167 446 -337 -2 170 -444zm-475 1026c116,0 128,-109 180,-245 12,-33 25,-72 38,-101 47,-6 437,-4 512,-2l93 245c51,132 152,120 201,67 64,-69 11,-160 -23,-251 -117,-315 -248,-676 -372,-993 -29,-72 -50,-193 -150,-193 -97,0 -116,77 -137,130l-445 1185c-21,74 27,158 103,158z"/>
  <path class="fil3" d="M349011 219814c4,-9 2,-6 7,-12 59,154 116,304 166,446l-336 0 163 -434zm-251 666l512 2c10,20 17,43 26,67 10,24 19,48 28,73l53 139c55,118 217,62 217,-35l0 -35 -390 -1048c-23,-61 -42,-116 -65,-175 -69,-182 -201,-108 -232,-47l-141 372c-64,176 -130,344 -187,501l-139 369c-54,154 162,246 225,67l93 -250z"/>
  <path class="fil3" d="M340652 220037c0,86 -2,104 20,197 38,166 138,331 276,431 61,43 124,82 181,104 212,82 475,79 686,-44 91,-53 137,-73 137,-175 0,-48 -82,-157 -215,-60 -27,20 -49,31 -81,47 -112,56 -247,68 -370,34 -95,-25 -165,-66 -238,-129 -12,-11 -16,-17 -27,-31 -12,-16 -17,-19 -29,-35 -46,-61 -102,-186 -102,-269 0,-102 4,-162 53,-260 29,-58 62,-106 101,-144 72,-70 236,-151 334,-151 132,0 246,13 357,98 117,89 217,24 217,-92 0,-134 -360,-244 -493,-244l-116 6c-170,13 -343,102 -464,219l-83 97c-78,105 -144,275 -144,401z"/>
  <path class="fil0" d="M348194 218310c42,0 144,-20 196,-26 27,-4 35,-1 49,-23l73 -148c9,-18 12,-32 27,-45l6 6c30,37 72,193 118,206l219 35c-6,13 -57,57 -72,72 -115,116 -101,75 -83,184 10,59 25,94 21,146 -40,-12 -183,-105 -208,-104 -28,1 -162,88 -212,104 -2,-29 16,-112 20,-139 17,-98 26,-87 -3,-115 -27,-26 -143,-133 -151,-153zm-180 11c0,29 8,56 17,76 28,63 128,127 134,151 -4,50 -23,101 -23,152 0,62 1,99 54,151 66,65 156,63 240,20 113,-56 89,-68 165,-22 55,33 112,63 182,49 50,-9 75,-27 105,-59 12,-13 24,-31 32,-49 28,-65 4,-172 -13,-247l51 -43c17,-15 30,-30 47,-46 91,-92 77,-239 -34,-302 -56,-32 -162,-28 -197,-43 -24,-9 -69,-130 -86,-153 -33,-49 -104,-82 -159,-77 -131,10 -161,104 -210,205 -10,21 -8,24 -34,30 -33,7 -70,9 -102,14 -99,17 -169,77 -169,193z"/>
  <path class="fil0" d="M341268 218314c12,-5 109,-17 128,-20 74,-10 102,-5 118,-35 19,-37 76,-176 103,-192 19,25 63,144 94,194 15,23 27,20 54,23l191 26c-3,29 -25,27 -83,86 -24,24 -58,63 -84,80 0,68 40,187 33,241 -44,-14 -187,-105 -210,-104 -30,2 -165,90 -210,104 -2,-27 16,-108 20,-135 14,-85 28,-87 0,-113 -51,-49 -107,-103 -154,-155zm-182 -5c0,132 105,161 157,239 -4,54 -23,104 -23,164 0,106 62,176 168,189 52,6 83,-11 124,-31 18,-9 35,-17 54,-28 19,-10 33,-26 53,-21 46,12 207,163 344,21 14,-14 25,-30 33,-48 31,-66 7,-173 -11,-251 11,-8 36,-29 48,-40 72,-69 103,-95 103,-200 0,-107 -84,-161 -174,-176 -27,-4 -82,-9 -106,-16 -21,-7 -17,-8 -27,-31l-61 -121c-68,-106 -240,-108 -310,5l-59 116c-21,44 -30,33 -133,47 -104,14 -180,79 -180,182z"/>
  <path class="fil3" d="M342334 219459l0 1255c0,59 61,114 112,114l693 0c6,0 36,-9 41,-11 110,-50 85,-203 -23,-220l-589 -1c-7,-66 -2,-875 -2,-1014 0,-54 7,-121 -11,-157 -64,-133 -221,-52 -221,34z"/>
  <path class="fil0" d="M342655 217365c37,0 69,-8 105,-13 16,-2 33,-4 51,-7 33,-6 21,3 35,-20 25,-39 45,-100 72,-145 16,11 76,137 83,161l179 24c-2,21 -13,25 -28,40l-98 99 28 174c-35,-10 -144,-79 -162,-78 -31,2 -129,77 -162,76 -1,-40 22,-131 27,-179l-130 -132zm538 466c24,-37 49,-42 65,-99 15,-50 -1,-106 -6,-149 -7,-66 104,-63 115,-209 4,-46 -21,-95 -41,-121 -22,-29 -59,-55 -99,-64 -96,-23 -93,8 -118,-45 -21,-44 -31,-68 -64,-100 -60,-60 -161,-71 -236,-17 -37,26 -48,51 -70,93 -31,64 -18,53 -100,64 -50,6 -79,24 -110,53 -101,92 -69,235 57,319 0,67 -47,135 15,225 110,161 272,44 305,31 15,-6 8,-7 26,-1 10,3 35,17 47,23 30,16 66,32 107,30 12,-1 43,-7 58,-12 24,-8 31,-17 49,-21z"/>
  <path class="fil0" d="M346893 220405l0 -625c29,2 81,24 103,37 49,30 75,58 107,103 57,79 53,200 24,287 -22,69 -68,121 -129,157 -57,32 -78,28 -105,41zm-185 190c88,4 182,6 268,-20 40,-12 61,-22 95,-39 64,-33 68,-43 111,-81 111,-97 180,-280 153,-435 -53,-309 -308,-468 -627,-432l0 1007z"/>
  <path class="fil3" d="M347891 219465l0 1249c0,152 232,144 232,6l0 -1255c0,-53 -52,-110 -127,-110 -53,0 -105,56 -105,110z"/>
  <path class="fil2" d="M345456 218650c13,21 9,67 44,129 72,125 186,189 332,198 93,6 188,-42 255,-97 63,-51 119,-145 128,-226l6 -59 -766 0 1 55z"/>
  <path class="fil2" d="M343181 218659c0,-31 -5,-39 -5,-64l-755 0c-2,409 565,540 738,136 6,-14 8,-21 11,-36l11 -36z"/>
  <path class="fil2" d="M343940 218654c5,38 28,96 46,128 20,34 52,74 79,96 99,77 195,119 330,91 69,-15 130,-44 180,-88 29,-26 57,-62 78,-98 34,-57 38,-120 47,-133l1 -55 -767 1 6 58z"/>
  <path class="fil2" d="M346975 218659c0,1 1,2 1,4 3,22 36,102 50,126 64,113 214,204 358,185 205,-26 351,-165 350,-379l-759 0 0 64z"/>
  <path class="fil4" d="M341268 218314c47,52 103,106 154,155 28,26 14,28 0,113 -4,27 -22,108 -20,135 45,-14 180,-102 210,-104 23,-1 166,90 210,104 7,-54 -33,-173 -33,-241 26,-17 60,-56 84,-80 58,-59 80,-57 83,-86l-191 -26c-27,-3 -39,0 -54,-23 -31,-50 -75,-169 -94,-194 -27,16 -84,155 -103,192 -16,30 -44,25 -118,35 -19,3 -116,15 -128,20z"/>
  <path class="fil5" d="M348194 218310c8,20 124,127 151,153 29,28 20,17 3,115 -4,27 -22,110 -20,139 50,-16 184,-103 212,-104 25,-1 168,92 208,104 4,-52 -11,-87 -21,-146 -18,-109 -32,-68 83,-184 15,-15 66,-59 72,-72l-219 -35c-46,-13 -88,-169 -118,-206l-6 -6c-15,13 -18,27 -27,45l-73 148c-14,22 -22,19 -49,23 -52,6 -154,26 -196,26z"/>
  <path class="fil1" d="M346970 217365c2,20 10,22 25,37 12,12 20,20 32,32 26,26 38,38 69,59 1,33 -8,58 -13,91 -4,23 -14,69 -15,94 31,-4 145,-79 162,-78 28,1 128,74 167,78 -7,-37 -11,-65 -17,-97 -9,-44 -20,-74 -1,-99 24,-29 109,-85 116,-117 -33,0 -169,-13 -186,-38 -19,-26 -57,-129 -77,-145 -29,33 -53,113 -77,147 -15,21 -47,18 -87,24 -32,4 -65,12 -98,12z"/>
  <path class="fil6" d="M342655 217365l130 132c-5,48 -28,139 -27,179 33,1 131,-74 162,-76 18,-1 127,68 162,78l-28 -174 98 -99c15,-15 26,-19 28,-40l-179 -24c-7,-24 -67,-150 -83,-161 -27,45 -47,106 -72,145 -14,23 -2,14 -35,20 -18,3 -35,5 -51,7 -36,5 -68,13 -105,13z"/>
  <path class="fil3" d="M348628 221543c-22,40 -109,36 -151,20 -108,-40 -142,-160 -77,-248 21,-29 70,-70 121,-70 112,0 96,41 146,41 30,0 40,-23 34,-44 -5,-18 -21,-27 -36,-35 -131,-76 -285,-28 -347,92 -25,50 -27,69 -27,121 0,141 144,263 312,220 37,-9 100,-36 100,-80 0,-77 17,-181 -36,-181 -65,0 -169,-15 -173,35 -4,54 98,40 134,40l0 89z"/>
  <path class="fil3" d="M344545 221191c-21,40 -12,152 -12,206 0,30 -29,313 57,248 22,-17 18,-53 18,-85 0,-71 0,-142 0,-213 20,13 69,85 93,117 7,9 17,24 27,38 23,30 93,143 119,149 69,15 45,-164 45,-219l0 -199c-3,-40 -17,-38 -24,-41 -92,-41 -31,187 -54,302l-59 -83c-21,-29 -40,-56 -61,-85 -70,-93 -87,-151 -149,-135z"/>
  <path class="fil3" d="M343274 221601c0,50 76,101 75,-41 0,-72 -2,-149 1,-221 32,40 211,307 241,312 48,8 43,-57 43,-91 -1,-46 4,-320 -4,-345 -13,-37 -71,-49 -72,24 -2,81 4,175 0,254 -18,-10 -146,-196 -177,-238 -13,-16 -18,-23 -29,-41 -30,-43 -78,-35 -78,19l0 368z"/>
  <path class="fil3" d="M342161 221438c-9,-45 12,-105 30,-127 24,-28 57,-57 98,-64 129,-22 235,140 147,263 -55,75 -155,87 -215,30 -27,-25 -52,-59 -60,-102zm-76 0c11,53 29,113 81,156 213,174 465,-85 347,-300 -12,-23 -31,-49 -50,-66 -34,-32 -106,-66 -173,-57 -144,20 -225,166 -205,267z"/>
  <path class="fil3" d="M345757 221438c-9,-44 13,-105 30,-126 23,-27 56,-57 98,-65 191,-35 259,281 48,327 -44,10 -94,-14 -116,-35 -28,-27 -52,-62 -60,-101zm-69 27c22,116 141,202 245,184 76,-12 111,-37 152,-86 138,-169 -6,-419 -200,-391 -143,20 -224,167 -204,266l7 27z"/>
  <path class="fil3" d="M346679 221438c-9,-44 13,-105 30,-126 113,-134 259,-47 276,74 26,183 -220,274 -296,81 -2,-5 -10,-29 -10,-29zm-69 27c33,170 259,266 397,98 84,-103 65,-255 -26,-336 -33,-30 -105,-65 -174,-55 -143,20 -224,166 -203,266l6 27z"/>
  <path class="fil3" d="M341134 221438c-9,-44 13,-105 30,-126 23,-28 56,-58 98,-65 191,-34 259,281 48,327 -44,10 -94,-14 -116,-35 -28,-27 -52,-62 -60,-101zm-75 0c2,10 -1,-9 3,13 8,31 6,42 26,79 8,16 38,52 52,64 188,155 399,-34 375,-207 -4,-34 -14,-66 -29,-93 -12,-23 -31,-50 -50,-67 -34,-31 -105,-65 -173,-56 -67,10 -119,44 -152,87 -25,32 -66,113 -52,180z"/>
  <path class="fil3" d="M341704 221576l-1 -319c78,0 140,8 179,74 43,72 27,155 -38,212 -37,32 -80,33 -140,33zm-77 31c0,59 58,45 113,45 183,-1 294,-183 216,-342 -33,-66 -119,-128 -193,-128 -97,0 -136,-14 -136,46l0 379z"/>
  <path class="fil3" d="M349359 221259c74,-12 153,-5 151,68 -3,68 -78,73 -152,61l1 -129zm174 174c73,-63 63,-173 -4,-221 -13,-10 -53,-30 -74,-30 -152,0 -172,-17 -172,57 0,54 -4,370 3,387 7,20 34,33 55,19 33,-24 17,-127 17,-177 41,-4 103,-10 131,24 17,20 12,36 15,68 10,121 114,92 100,38 -9,-38 -22,-4 -25,-55 -4,-63 -12,-77 -46,-110z"/>
  <path class="fil3" d="M342949 221259c82,-9 235,25 218,-46 -6,-27 -25,-32 -56,-32 -265,1 -237,-17 -237,111 0,53 -9,317 6,342 19,31 112,18 155,18 33,0 135,15 135,-39 -1,-60 -127,-30 -221,-38l0 -119c39,-5 92,-1 133,-1 25,0 43,-1 53,-17 50,-85 -153,-57 -186,-61l0 -118z"/>
  <path class="fil0" d="M341134 221438c8,39 32,74 60,101 22,21 72,45 116,35 211,-46 143,-361 -48,-327 -42,7 -75,37 -98,65 -17,21 -39,82 -30,126z"/>
  <path class="fil0" d="M345757 221438c8,39 32,74 60,101 22,21 72,45 116,35 211,-46 143,-362 -48,-327 -42,8 -75,38 -98,65 -17,21 -39,82 -30,126z"/>
  <path class="fil0" d="M346679 221438c0,0 8,24 10,29 76,193 322,102 296,-81 -17,-121 -163,-208 -276,-74 -17,21 -39,82 -30,126z"/>
  <path class="fil0" d="M342161 221438c8,43 33,77 60,102 60,57 160,45 215,-30 88,-123 -18,-285 -147,-263 -41,7 -74,36 -98,64 -18,22 -39,82 -30,127z"/>
  <path class="fil7" d="M343808 216508c7,24 80,86 104,102 0,47 -23,106 -23,150 36,-3 111,-61 133,-61 20,0 101,55 133,63 -1,-37 -32,-131 -15,-155 18,-27 75,-55 96,-96 -19,-10 -99,-13 -128,-21l-84 -135c-26,34 -41,87 -63,119 -14,22 -1,13 -71,23 -25,3 -53,8 -82,11z"/>
  <path class="fil3" d="M345316 221303c0,-29 7,-37 27,-50 93,-60 171,37 208,27 87,-52 -76,-116 -129,-116 -90,0 -186,43 -176,151 8,83 94,102 171,121 163,41 117,109 62,133 -112,49 -170,-45 -220,-45 -24,0 -56,35 10,79 186,123 375,-17 319,-138 -13,-28 -43,-56 -72,-69 -58,-28 -200,-35 -200,-93z"/>
  <path class="fil8" d="M346064 216489c-53,1 -97,16 -150,18 27,44 104,87 104,121 0,33 -17,100 -23,134 35,-3 101,-61 134,-62 29,-1 95,57 132,60 1,-43 -15,-102 -23,-145 18,-12 99,-88 104,-107l-118 -16c-31,-5 -18,3 -31,-16 -22,-30 -38,-87 -63,-120 -12,16 -60,112 -66,133z"/>
  <path class="fil3" d="M347764 221484c37,182 264,229 360,70 42,-68 27,-187 28,-286 0,-30 6,-51 -10,-70 -12,-15 -30,-23 -49,-8 -20,15 -17,35 -17,67 1,47 5,201 -3,229 -23,80 -115,123 -193,61 -81,-65 -17,-301 -49,-347 -10,-16 -29,-25 -48,-11 -21,14 -20,29 -20,62l1 233z"/>
  <path class="fil3" d="M343994 221484c37,182 264,229 360,71 42,-69 27,-188 28,-287 0,-30 6,-52 -10,-70 -13,-15 -31,-23 -49,-8 -20,15 -17,35 -17,67 1,47 5,201 -3,229 -23,81 -115,123 -193,61 -58,-46 -42,-176 -41,-273 0,-27 4,-57 -8,-75 -14,-20 -69,-39 -68,52l1 233z"/>
  <path class="fil0" d="M348848 220248l336 0c-50,-142 -107,-292 -166,-446 -5,6 -3,3 -7,12l-163 434z"/>
  <path class="fil3" d="M348965 221466c12,-32 38,-118 53,-138 9,12 21,50 28,69 7,18 18,52 28,69l-109 0zm236 166c4,-50 -72,-224 -93,-280 -29,-82 -52,-193 -108,-166 -19,9 -25,38 -34,61 -33,93 -68,178 -103,275 -9,25 -20,49 -28,72 -8,26 7,52 27,57 42,9 62,-71 73,-110l158 0c33,10 28,166 108,91z"/>
  <polygon class="fil0" points="343842,220246 344179,220248 344012,219802 "/>
  <path class="fil3" d="M345020 215886l23 0 6 0 23 0 12 0 23 0 6 0 23 0c30,-50 32,-47 -46,-99l0 -237c20,12 74,41 98,45 -1,-36 -29,-104 -9,-132 18,-25 75,-50 77,-81 -47,-3 -76,-12 -122,-12l-56 -114c-2,2 -3,2 -8,11l-45 89c-14,19 -97,25 -125,26 1,25 56,63 74,84 15,18 6,35 1,61 -4,23 -4,50 -12,67 37,1 68,-35 102,-44 20,280 -8,228 -50,268 -28,28 -17,48 5,68z"/>
  <path class="fil3" d="M340855 221473c0,-71 -1,-145 1,-216 32,0 102,8 125,-6 30,-18 19,-69 -19,-69l-291 0c-33,0 -47,54 -13,70 29,14 84,1 122,7 1,73 0,147 0,219 0,52 -19,181 42,173 54,-7 33,-130 33,-178z"/>
  <path class="fil0" d="M341704 221576c60,0 103,-1 140,-33 65,-57 81,-140 38,-212 -39,-66 -101,-74 -179,-74l1 319z"/>
  <path class="fil3" d="M347474 221574c-4,-64 12,-347 -8,-376 -15,-23 -51,-21 -63,3 -11,23 -5,243 -5,277 0,42 -19,158 24,171 19,6 158,2 189,3 38,0 62,5 76,-22 44,-83 -154,-47 -213,-56z"/>
  <path class="fil3" d="M346350 221576c-10,-68 13,-343 -9,-374 -15,-21 -45,-28 -61,-4 -12,19 -7,60 -7,88 0,443 -42,365 206,366 35,0 66,6 81,-17 16,-25 0,-50 -24,-57 -23,-6 -152,-2 -186,-2z"/>
  <path class="fil0" d="M349358 221388c74,12 149,7 152,-61 2,-73 -77,-80 -151,-68l-1 129z"/>
  <path class="fil0" d="M348965 221466l109 0c-10,-17 -21,-51 -28,-69 -7,-19 -19,-57 -28,-69 -15,20 -41,106 -53,138z"/>
 </g>
</svg>
